<svg xmlns="http://www.w3.org/2000/svg" width="876.2" height="188.4" viewBox="0 0 8762 1884">
  <path fill="#0166b0" d="M942 897c-6-8-16-13-26-13H786c-13 0-24 7-29 19l-279 713-278-713c-5-12-16-19-29-19H41c-10 0-20 5-26 13-6 9-7 20-3 29l368 912c5 12 16 20 29 20h141c12 0 24-8 29-20l366-912c4-9 3-20-3-29zm324 823c-129 0-188-116-188-224s59-223 188-223 187 115 187 223-58 224-187 224m0-601c-208 0-358 158-358 377s150 378 358 378c207 0 358-159 358-378s-151-377-358-377zm623-235h-103c-17 0-31 14-31 31v911c0 18 14 32 31 32h103c17 0 31-14 31-32V915c0-17-14-31-31-31zm780 251h-102c-17 0-31 14-31 31v475c-33 39-95 79-163 79-86 0-118-32-118-119v-435c0-17-14-31-31-31h-103c-17 0-31 14-31 31v466c0 158 84 242 242 242 72 0 144-25 204-70v22c0 18 14 32 31 32h102c18 0 32-14 32-32v-660c0-17-14-31-32-31zm599-16c-82 0-153 32-205 71v-24c0-17-14-31-31-31h-103c-17 0-31 14-31 31v660c0 18 14 32 31 32h103c17 0 31-14 31-32v-471c35-42 97-82 164-82 85 0 118 34 118 122v431c0 18 14 32 31 32h101c17 0 31-14 31-32v-463c0-158-85-244-240-244zm759 592c-4-10-13-17-23-19-11-2-22 2-29 10-9 9-26 18-47 18-28 0-34-29-34-53v-379h103c17 0 31-14 31-32v-90c0-17-14-31-31-31h-103V986c0-17-14-31-31-31h-104c-18 0-32 14-32 31v149h-78c-17 0-31 14-31 31v90c0 18 14 32 31 32h78v400c0 118 66 186 179 186 60 0 107-17 143-51 10-9 13-22 8-34zm273-289c16-72 70-156 180-156 117 0 170 84 183 156zm182-303c-204 0-357 162-357 377 0 222 152 378 369 378 112 0 210-38 284-111 11-11 13-29 4-41l-50-67c-5-8-13-12-23-13-9 0-18 3-24 10-47 47-113 75-183 75-118 0-183-79-201-166h498c17 0 31-14 31-31v-26c0-227-143-385-348-385zm615 303c15-72 70-156 180-156 117 0 170 84 183 156zm182-303c-204 0-357 162-357 377 0 222 152 378 369 378 111 0 210-38 284-111 11-11 13-29 3-41l-49-67c-5-8-14-12-23-13s-18 3-24 10c-47 47-114 75-183 75-118 0-183-79-201-166h498c17 0 31-14 31-31v-26c0-227-143-385-348-385zm832 1c-68 0-133 26-189 74v-28c0-17-14-31-31-31h-103c-17 0-31 14-31 31v660c0 18 14 32 31 32h103c17 0 31-14 31-32v-458c29-43 100-83 149-83 13 0 24 1 36 3 9 0 18-2 25-8 6-6 10-15 10-24v-105c0-17-14-31-31-31z"/>
  <g id="hub" fill="#f7964a">
    <path d="M7085 884h-113c-17 0-31 14-31 31v361h-471V915c0-17-14-31-31-31h-114c-17 0-31 14-31 31v911c0 18 14 32 31 32h114c17 0 31-14 31-32v-387h471v387c0 18 14 32 31 32h113c18 0 32-14 32-32V915c0-17-14-31-32-31zm785 251h-103c-17 0-31 14-31 31v475c-32 39-94 79-163 79-85 0-117-32-117-119v-435c0-17-14-31-32-31h-102c-17 0-31 14-31 31v466c0 158 83 242 241 242 72 0 145-25 204-70v22c0 18 14 32 31 32h103c17 0 31-14 31-32v-660c0-17-14-31-31-31zm714 362c0 135-71 223-181 223-64 0-133-34-167-82v-281c30-42 96-84 167-84 110 0 181 88 181 224m-156-378c-71 0-138 24-192 69V915c0-17-14-31-31-31h-103c-17 0-31 14-31 31v911c0 18 14 32 31 32h103c17 0 31-14 31-32v-20c54 43 122 68 192 68 194 0 325-151 325-377s-131-378-325-378z"/>
    <g id="triangle">
      <path fill="#c7d2ea" d="M7595 10c-20 0-41 8-56 23l-87 88c-31 31-31 81 0 112l87 87c15 15 36 23 56 23s41-8 56-23l87-87c31-31 31-81 0-112l-87-88c-15-15-36-23-56-23zm-553 0c-21 0-41 8-56 23l-87 88c-31 31-31 81 0 112l87 87c15 15 35 23 56 23 20 0 40-8 56-23l87-87c31-31 31-81 0-112l-87-88c-16-15-36-23-56-23z"/>
      <path fill="#6991c9" d="M7318 286c-20 0-41 7-56 23l-87 87c-31 31-31 81 0 112l87 87c15 16 36 24 56 24s41-8 56-24l87-87c31-31 31-81 0-112l-87-87c-15-16-36-23-56-23zm553 0c-20 0-41 7-56 23l-87 87c-31 31-31 81 0 112l87 87c15 16 36 24 56 24s41-8 56-24l87-87c31-31 31-81 0-112l-87-87c-15-16-36-23-56-23z"/>
      <path fill="#c7d2ea" d="M8148 10c-20 0-41 8-56 23l-87 88c-31 31-31 81 0 112l87 87c15 15 36 23 56 23s41-8 56-23l87-87c31-31 31-81 0-112l-87-88c-15-15-36-23-56-23z"/>
      <path fill="#0166b0" d="M7738 785l-87 87c-31 31-81 31-112 0l-87-87c-31-31-31-81 0-112l87-87c31-31 81-31 112 0l87 87c31 31 31 81 0 112z"/>
    </g>
  </g>
</svg>
